<svg width="141" height="147" viewBox="0 0 141 147" fill="none" xmlns="http://www.w3.org/2000/svg">
<path d="M93.3154 142.896C86.1593 145.556 78.4847 147 70.4998 147C62.5152 147 54.8409 145.556 47.685 142.896H93.3154Z" fill="#46C6EC"/>
<path d="M104.161 137.713C102.349 138.786 100.489 139.775 98.5848 140.675H42.4149C40.5109 139.775 38.6504 138.786 36.8382 137.713H104.161Z" fill="#46C6EC"/>
<path d="M111.728 132.531C110.409 133.567 109.055 134.555 107.668 135.492H33.332C31.9456 134.555 30.5913 133.567 29.2713 132.531H111.728Z" fill="#46C6EC"/>
<path d="M117.633 127.348C116.589 128.369 115.518 129.357 114.419 130.309H26.5814C25.4827 129.357 24.411 128.369 23.3673 127.348H117.633Z" fill="#46C6EC"/>
<path d="M141 70.3374C141 90.6852 133.709 109.181 121.814 122.905H19.1861C7.29119 109.181 0 90.6853 0 70.3374H141Z" fill="#46C6EC"/>
<path d="M70.5 0C31.5639 0 0 31.6424 0 70.6754H141C141 31.6424 109.436 0 70.5 0Z" fill="#EABC95"/>
<path d="M22.972 70.5297L17.6343 52.4834H23.8092L26.5827 63.7361L29.3562 52.4834H35.2695L29.644 70.5297H22.972Z" fill="#F0F4F5"/>
<path d="M45.0125 70.9494C43.1111 70.9494 41.4366 70.5472 39.9888 69.7428C38.541 68.9384 37.4072 67.828 36.5874 66.4116C35.785 64.9952 35.3838 63.3689 35.3838 61.5328C35.3838 59.6792 35.785 58.0442 36.5874 56.6278C37.4072 55.2114 38.541 54.101 39.9888 53.2966C41.4366 52.4922 43.1111 52.09 45.0125 52.09C46.9138 52.09 48.5883 52.4922 50.0361 53.2966C51.4839 54.0835 52.609 55.1851 53.4114 56.6016C54.2313 58.018 54.6412 59.6617 54.6412 61.5328C54.6412 63.3689 54.2313 64.9952 53.4114 66.4116C52.609 67.828 51.4839 68.9384 50.0361 69.7428C48.5883 70.5472 46.9138 70.9494 45.0125 70.9494ZM45.0125 66.1755C46.1114 66.1755 47.0097 65.7471 47.7075 64.8903C48.4226 64.0334 48.7802 62.9055 48.7802 61.5066C48.7802 60.5623 48.6145 59.7317 48.2831 59.0147C47.9691 58.2978 47.5243 57.7382 46.9487 57.336C46.3905 56.9163 45.7364 56.7065 44.9863 56.7065C43.8874 56.7065 42.989 57.1524 42.2913 58.0442C41.5936 58.9185 41.2447 60.0727 41.2447 61.5066C41.2447 62.9055 41.5936 64.0334 42.2913 64.8903C42.989 65.7471 43.8961 66.1755 45.0125 66.1755Z" fill="#F0F4F5"/>
<path d="M55.8008 70.5297V66.7264L61.9757 56.6278H56.0363V52.4834H67.9413V56.313L61.8711 66.3854H68.0722V70.5297H55.8008Z" fill="#F0F4F5"/>
<path d="M74.7256 70.5297V52.4834H80.9791C83.5955 52.4834 85.7236 52.8594 87.3633 53.6113C89.0204 54.3633 90.2327 55.4037 91.0002 56.7327C91.7852 58.0617 92.1777 59.6093 92.1777 61.3754C92.1777 64.2607 91.227 66.5078 89.3257 68.1166C87.4418 69.7253 84.5724 70.5297 80.7174 70.5297H74.7256ZM80.5081 65.9395H82.1826C83.5781 65.9395 84.616 65.5198 85.2963 64.6804C85.9766 63.8236 86.3167 62.7044 86.3167 61.323C86.3167 60.0464 85.9853 59.0235 85.3224 58.254C84.677 57.4671 83.6304 57.0737 82.1826 57.0737H80.5081V65.9395Z" fill="#F0F4F5"/>
<path d="M94.2982 70.5297V52.4834H106.936V56.4704H100.656V59.6705H106.386V62.9755H100.656V66.4116H106.936V70.5297H94.2982Z" fill="#F0F4F5"/>
<path d="M109.297 70.5297V52.4834H114.949V66.3854H121.333L121.071 70.5297H109.297Z" fill="#F0F4F5"/>
<path d="M41.534 106.96V88.9141H54.1716V92.901H47.892V96.1011H53.6222V99.4061H47.892V102.842H54.1716V106.96H41.534Z" fill="#F0F4F5"/>
<path d="M62.0274 107.38C60.9285 107.38 59.8121 107.24 58.6783 106.96C57.5445 106.698 56.5851 106.34 55.8002 105.885L56.7421 101.609C57.7538 102.152 58.6958 102.51 59.5679 102.685C60.4576 102.842 61.2774 102.921 62.0274 102.921C62.7252 102.921 63.2485 102.807 63.5974 102.58C63.9637 102.353 64.1468 102.047 64.1468 101.662C64.1468 101.312 63.9462 101.041 63.545 100.849C63.1438 100.639 62.6205 100.447 61.9751 100.272C61.3472 100.097 60.6756 99.8957 59.9604 99.6684C59.2452 99.4236 58.565 99.1088 57.9196 98.7241C57.2916 98.3219 56.777 97.7973 56.3758 97.1503C55.9746 96.4858 55.774 95.6552 55.774 94.6585C55.774 93.3994 56.0793 92.3152 56.6898 91.4059C57.3003 90.4791 58.1725 89.7709 59.3063 89.2813C60.4401 88.7742 61.7745 88.5206 63.3095 88.5206C64.3387 88.5206 65.3417 88.6605 66.3185 88.9403C67.3128 89.2026 68.1064 89.5611 68.6995 90.0157L67.8099 93.8716C66.9203 93.5043 66.1179 93.242 65.4027 93.0847C64.705 92.9098 64.0422 92.8224 63.4142 92.8224C62.6816 92.8224 62.1234 92.9273 61.7396 93.1371C61.3559 93.347 61.164 93.6267 61.164 93.9765C61.164 94.3087 61.3646 94.5798 61.7658 94.7896C62.167 94.9995 62.6816 95.2005 63.3095 95.3929C63.9375 95.5853 64.6091 95.8038 65.3242 96.0487C66.0394 96.2935 66.711 96.617 67.3389 97.0192C67.9669 97.4214 68.4815 97.946 68.8827 98.593C69.2839 99.24 69.4845 100.053 69.4845 101.032C69.4845 103.061 68.8216 104.626 67.4959 105.728C66.1877 106.829 64.3648 107.38 62.0274 107.38Z" fill="#F0F4F5"/>
<path d="M74.102 106.96V93.0584H70.0464V88.9141H84.254V93.0584H80.1984V106.96H74.102Z" fill="#F0F4F5"/>
<path d="M85.8917 106.96V88.9141H98.5294V92.901H92.2498V96.1011H97.9799V99.4061H92.2498V102.842H98.5294V106.96H85.8917Z" fill="#F0F4F5"/>
</svg>
